<?xml version="1.0" encoding="UTF-8"?>
<svg version="1.1" xmlns="http://www.w3.org/2000/svg" width="1206" height="1490">
<path d="M0 0 C1.83349609 0.15454102 1.83349609 0.15454102 4 1 C5.39697266 3.36303711 5.39697266 3.36303711 6.6640625 6.52734375 C7.14746094 7.71521484 7.63085938 8.90308594 8.12890625 10.12695312 C8.62785097 11.39703849 9.12655027 12.66722029 9.625 13.9375 C10.33076172 15.67870117 10.33076172 15.67870117 11.05078125 17.45507812 C13.91382032 24.56758856 16.66397036 31.7222389 19.40583801 38.88218689 C25.18405796 53.96868056 31.14837713 68.97684811 37.17095947 83.96691895 C39.45881757 89.66188032 41.74377514 95.35800493 44.02734375 101.0546875 C44.27621778 101.6753755 44.52509182 102.2960635 44.78150749 102.93556023 C48.96619731 113.37578414 53.09261657 123.83795722 57.19711304 134.3099823 C60.51258207 142.76786325 63.85948269 151.21237884 67.24246216 159.64346313 C68.10862706 161.80247689 68.97326705 163.96209701 69.83764648 166.12182617 C72.53001134 172.84730932 75.22841088 179.57029822 77.9375 186.2890625 C85.71244876 205.59748609 85.71244876 205.59748609 88.8671875 214.9375 C89.79016249 217.43271515 90.79104179 219.81581533 91.8828125 222.23828125 C94.09847053 227.15661144 96.05882703 232.15567516 98 237.1875 C101.63465316 246.54223776 105.32977634 255.87158133 109.0625 265.1875 C109.32070526 265.83220245 109.57891052 266.47690491 109.84494019 267.1411438 C112.27923319 273.21892172 114.71704796 279.29528445 117.15625 285.37109375 C124.37219546 303.35740509 131.5154318 321.37445179 138.375 339.5 C140.70241154 345.64855213 143.09477025 351.75219369 145.6640625 357.8046875 C147.80832289 362.93335709 149.84889456 368.10342447 151.90039062 373.26977539 C153.58632681 377.50501025 155.29491807 381.72716769 157.0703125 385.92578125 C157.55781982 387.08364136 157.55781982 387.08364136 158.05517578 388.26489258 C158.66990643 389.71911974 159.29038117 391.17093658 159.91748047 392.61987305 C161.3611456 396.0427565 162 398.21656755 162 402 C162.64324219 401.86722656 163.28648437 401.73445313 163.94921875 401.59765625 C178.51801311 398.75040257 193.21078447 398.76221144 208 398.5 C219.58853595 398.29149599 231.17046139 398.04865072 242.75 397.53125 C243.6376001 397.49390747 244.5252002 397.45656494 245.43969727 397.41809082 C246.25881592 397.37873413 247.07793457 397.33937744 247.921875 397.29882812 C248.63956055 397.26535278 249.35724609 397.23187744 250.09667969 397.1973877 C252.22167933 397.04648497 252.22167933 397.04648497 255 396 C258.02584746 395.90303287 261.0285139 395.86362428 264.05444336 395.87060547 C264.98170227 395.86885315 265.90896118 395.86710083 266.86431885 395.86529541 C269.9395127 395.86088385 273.01464927 395.86381462 276.08984375 395.8671875 C278.23157258 395.86651375 280.37330134 395.86554312 282.51502991 395.86428833 C287.0133639 395.86281188 291.51167807 395.86496234 296.01000977 395.86962891 C301.74941324 395.87529525 307.48876964 395.87206661 313.22817135 395.86605644 C317.65766242 395.86242295 322.08714256 395.86360271 326.51663399 395.86618423 C328.63073291 395.86684742 330.74483286 395.86604654 332.85893059 395.86370468 C353.08073976 395.84623726 353.08073976 395.84623726 361.67018127 396.88357544 C364.28018773 397.0140014 366.46226651 396.58981327 369 396 C370.51318954 395.83299355 372.02920348 395.68992395 373.546875 395.5703125 C374.3925 395.49683594 375.238125 395.42335938 376.109375 395.34765625 C377.8536348 395.20058109 379.59844105 395.05983359 381.34375 394.92578125 C387.26995259 394.39601466 392.44788861 393.12127992 398 391 C398.91910156 390.66097656 399.83820312 390.32195312 400.78515625 389.97265625 C405.99954042 387.88869139 411.01525432 385.58068526 416 383 C417.42505859 382.29617188 417.42505859 382.29617188 418.87890625 381.578125 C437.8121358 372.51251598 437.8121358 372.51251598 452 358 C452.66 358 453.32 358 454 358 C454.26417725 357.41532959 454.52835449 356.83065918 454.80053711 356.22827148 C456.04557251 353.91533883 457.41169576 352.27230673 459.19140625 350.34765625 C492.91439759 312.59361135 509.67775201 255.09399894 508 205 C505.02805878 160.66497015 491.2696795 114.98118615 463 80 C462.28328125 79.0925 461.5665625 78.185 460.828125 77.25 C448.56111991 61.93799365 435.20025918 49.08644243 419 38 C418.28070312 37.4946875 417.56140625 36.989375 416.8203125 36.46875 C395.01919864 21.87229609 369.09074942 22.36877016 343.91122961 22.28790021 C339.54326336 22.2696634 335.17548734 22.22891601 330.80764771 22.19187927 C319.9442883 22.10513864 309.0808745 22.05758255 298.2172718 22.01353741 C292.69915725 21.99031868 287.18106248 21.9630385 281.66296387 21.93634033 C257.66340279 21.82198655 233.66376989 21.73152639 209.6640625 21.65429688 C208.44564462 21.65036336 207.22722674 21.64642985 205.97188711 21.64237714 C192.14793503 21.59804317 178.32397951 21.55793613 164.5 21.52319336 C153.27350465 21.49491634 142.04705389 21.45963887 130.8206054 21.41653961 C123.80352761 21.38998405 116.78649914 21.37195775 109.76938128 21.36050236 C105.45445739 21.35139012 101.13959615 21.33404935 96.82470894 21.31432343 C94.83124459 21.30685537 92.83776425 21.30276731 90.84428596 21.30232811 C88.12497898 21.30124459 85.40598965 21.28799242 82.68673706 21.27174377 C81.90247908 21.27436063 81.11822109 21.27697748 80.31019771 21.27967364 C75.52376736 21.23500125 71.51128502 20.65538844 67 19 C65.76310938 16.52621876 65.86689913 14.82084683 65.875 12.0625 C65.87242187 11.18722656 65.86984375 10.31195313 65.8671875 9.41015625 C66 7 66 7 67 4 C73.24497208 -0.89061683 79.25753578 -0.56417682 86.95606995 -0.50793457 C88.26551588 -0.51417453 89.57496182 -0.5204145 90.92408794 -0.52684355 C94.5486476 -0.54351343 98.17278499 -0.53530109 101.797346 -0.52289867 C105.71113789 -0.51383946 109.62485773 -0.52782313 113.53863525 -0.53881836 C121.2059809 -0.55660637 128.8731699 -0.55276019 136.54052169 -0.5411678 C142.78112131 -0.53212498 149.02167712 -0.53091318 155.26228142 -0.53526306 C156.15142276 -0.53587599 157.04056411 -0.53648893 157.95664914 -0.53712043 C159.76326332 -0.53839941 161.5698775 -0.53969626 163.37649166 -0.5410108 C180.32361567 -0.55241998 197.27065318 -0.53930275 214.217763 -0.51780933 C228.7200073 -0.49998424 243.22212332 -0.5030038 257.72436523 -0.52148438 C274.58863193 -0.54296509 291.45282247 -0.55127276 308.31710094 -0.53903532 C310.12156132 -0.53776125 311.9260217 -0.53650376 313.7304821 -0.53526306 C314.61812914 -0.53464596 315.50577617 -0.53402886 316.4203216 -0.53339306 C322.63677066 -0.52995821 328.85317099 -0.53572894 335.0696125 -0.54518127 C342.67060435 -0.55648496 350.27143132 -0.55318959 357.87240464 -0.5320583 C361.74150491 -0.52165189 365.61033192 -0.51724366 369.47942924 -0.53065491 C390.81236725 -0.59837471 410.82234177 0.83257349 431.1484375 7.72265625 C434.50116672 8.85770374 437.88308685 9.82813439 441.29321289 10.77441406 C462.71492555 16.77434724 482.35331575 26.98152855 501 39 C501.92167969 39.58007812 502.84335937 40.16015625 503.79296875 40.7578125 C508.47713415 43.76439308 508.47713415 43.76439308 510 45 C510 45.66 510 46.32 510 47 C510.7425 47.268125 511.485 47.53625 512.25 47.8125 C514.89061949 48.95276751 516.85552844 50.09380306 519 52 C519 52.66 519 53.32 519 54 C519.721875 54.226875 520.44375 54.45375 521.1875 54.6875 C524.56432417 56.26335128 526.55767039 58.20876616 529 61 C529 61.66 529 62.32 529 63 C529.59554687 63.25910156 530.19109375 63.51820313 530.8046875 63.78515625 C533.17692182 65.09790513 534.40418309 66.35781927 536.125 68.4375 C538.89886059 71.73662356 541.78104874 74.87553225 544.75 78 C555.06200747 89.34477302 562.82195453 102.5206169 570 116 C570.54269531 117.00289063 571.08539062 118.00578125 571.64453125 119.0390625 C594.40349432 162.63538754 602.7290153 219.72140665 588 267 C580.46548379 290.6876517 565.76527133 313.19036551 551 333 C550.37867188 333.86882812 549.75734375 334.73765625 549.1171875 335.6328125 C548.58351563 336.37273437 548.04984375 337.11265625 547.5 337.875 C547.0565625 338.49117187 546.613125 339.10734375 546.15625 339.7421875 C545.58390625 340.36480469 545.58390625 340.36480469 545 341 C544.34 341 543.68 341 543 341 C542.74347656 341.57363281 542.48695313 342.14726563 542.22265625 342.73828125 C537.87339157 350.78372613 529.65259489 357.44367858 523.25 363.875 C522.5170874 364.61258545 521.7841748 365.3501709 521.02905273 366.11010742 C511.10971584 376 511.10971584 376 508 376 C508 376.66 508 377.32 508 378 C506.0859375 379.41015625 506.0859375 379.41015625 503.375 381.0625 C499.55081672 383.41659494 495.77016486 385.80937393 492.03369141 388.30053711 C464.82443198 406.27408621 433.50685248 417.0542854 401 419 C401.90621094 419.29390625 402.81242188 419.5878125 403.74609375 419.890625 C406.26590282 420.74971957 408.64357075 421.65354698 411.0625 422.75 C411.8153125 423.0903125 412.568125 423.430625 413.34375 423.78125 C418.56700901 426.17780413 423.78637516 428.58255417 429 431 C429 431.66 429 432.32 429 433 C429.86625 433.268125 430.7325 433.53625 431.625 433.8125 C434.91791964 434.97111987 437.91127875 436.38209839 441 438 C441 438.66 441 439.32 441 440 C441.721875 440.268125 442.44375 440.53625 443.1875 440.8125 C445.99766383 441.99901362 448.48416557 443.27485639 451 445 C451 445.66 451 446.32 451 447 C451.556875 447.061875 452.11375 447.12375 452.6875 447.1875 C455.26998893 448.09486098 456.53618445 449.37095481 458.3828125 451.34375 C460.49451984 453.50646476 462.74246068 455.49032108 465 457.5 C471.76270056 463.56551494 478.26295963 469.93806578 484 477 C484 477.66 484 478.32 484 479 C484.66 479 485.32 479 486 479 C487.62305771 481.09368411 489.13410596 483.18988568 490.625 485.375 C493.66592372 489.74351167 496.73863303 494.01298296 500.125 498.125 C512 512.71428571 512 512.71428571 512 517 C512.66 517 513.32 517 514 517 C515.12109375 518.5546875 515.12109375 518.5546875 516.4375 520.875 C519.2905449 525.79165504 522.21539493 530.65483327 525.1875 535.5 C526.1433547 537.06242321 527.09908156 538.62492464 528.0546875 540.1875 C529.03640896 541.79169688 530.01818012 543.39586335 531 545 C546.9946331 571.13267219 546.9946331 571.13267219 550.3125 577.1875 C553.02540968 582.1345706 555.94903738 586.95118374 558.87817383 591.7722168 C564 600.23211017 564 600.23211017 564 604 C564.66 604 565.32 604 566 604 C566.58007812 605.09957031 567.16015625 606.19914063 567.7578125 607.33203125 C569.79566458 611.19221022 571.84177421 615.04796258 573.88964844 618.90283203 C574.75899081 620.54479575 575.61948558 622.19144448 576.4765625 623.83984375 C579.86027484 630.24398644 583.63949134 636.39851873 587.4375 642.5625 C587.97536133 643.43745117 588.51322266 644.31240234 589.06738281 645.21386719 C592.36399707 650.52231251 595.81733253 655.67563801 599.46142578 660.75219727 C600.93360605 662.90300078 602.20817833 665.07852249 603.4375 667.375 C607.35089901 674.65934668 612.11460108 681.46309238 617 688.125 C619 691 619 691 619 693 C619.66 693 620.32 693 621 693 C622.32861328 694.43701172 622.32861328 694.43701172 623.8203125 696.4296875 C624.35527344 697.14253906 624.89023437 697.85539063 625.44140625 698.58984375 C625.99699219 699.34394531 626.55257812 700.09804688 627.125 700.875 C627.68832031 701.62136719 628.25164063 702.36773438 628.83203125 703.13671875 C633 708.73774213 633 708.73774213 633 711 C633.99 711.33 634.98 711.66 636 712 C637.6484375 713.890625 637.6484375 713.890625 639.375 716.25 C641.41600312 718.97422027 643.40319793 721.53253641 645.875 723.875 C648 726 648 726 649 729 C649.99 729.33 650.98 729.66 652 730 C652 730.66 652 731.32 652 732 C652.58265625 732.268125 653.1653125 732.53625 653.765625 732.8125 C656.02786601 734.01480991 657.80576318 735.33825913 659.75 737 C660.36359375 737.515625 660.9771875 738.03125 661.609375 738.5625 C663 740 663 740 663 742 C663.56332031 742.268125 664.12664063 742.53625 664.70703125 742.8125 C667.14423115 744.07469552 669.39831955 745.48649226 671.6875 747 C672.47511719 747.515625 673.26273438 748.03125 674.07421875 748.5625 C676 750 676 750 677 752 C678.38424504 752.86658316 679.80788439 753.67107763 681.25 754.4375 C683.72463263 755.77029427 686.16212127 757.09885443 688.5625 758.5625 C691.95032866 760.56045023 695.46788923 762.27338506 699 764 C699 764.66 699 765.32 699 766 C700.00546875 766.25007813 701.0109375 766.50015625 702.046875 766.7578125 C706.12460096 767.92375525 709.57918583 769.78751363 713.25 771.875 C718.59625428 774.8259149 723.85030827 777.26260276 729.66015625 779.19921875 C732 780 732 780 735.4375 781.625 C740.49283121 783.57618047 745.65100181 784.2534239 751 785 C751 785.66 751 786.32 751 787 C751.9178125 787.04898438 752.835625 787.09796875 753.78125 787.1484375 C755.0084375 787.22320313 756.235625 787.29796875 757.5 787.375 C759.30984375 787.47941406 759.30984375 787.47941406 761.15625 787.5859375 C764.48336423 787.94434615 767.4547681 788.64962958 770.67480469 789.50976562 C775.66560172 790.56200423 780.79534052 790.72522469 785.875 791.0625 C788.12265388 791.21632699 790.37006916 791.37369466 792.6171875 791.53515625 C793.60315918 791.600979 794.58913086 791.66680176 795.60498047 791.73461914 C798 792 798 792 800 793 C802.56330882 793.20242039 805.1082749 793.35266885 807.67578125 793.46484375 C809.24154805 793.54338915 810.80730291 793.62217273 812.37304688 793.70117188 C814.84157903 793.82063676 817.31017778 793.9373945 819.77905273 794.04956055 C822.16173401 794.15956716 824.54368949 794.28031746 826.92578125 794.40234375 C827.65928299 794.43263168 828.39278473 794.46291962 829.14851379 794.49412537 C833.14789117 794.70543765 836.3823174 795.25467729 840 797 C839.67 798.65 839.34 800.3 839 802 C832.30366498 803.52643642 825.6036537 805.03591782 818.90112305 806.53491211 C816.63238852 807.04424597 814.36444847 807.55713473 812.09741211 808.07397461 C796.79103985 811.56025634 781.61456626 814.35182032 766 816 C765.0731842 816.10175537 764.14636841 816.20351074 763.19146729 816.30834961 C748.84111184 817.85234173 734.57533903 818.3442873 720.14672852 818.31567383 C716.80387335 818.31249179 713.46188899 818.33618367 710.11914062 818.36132812 C690.60971334 818.41901435 672.50499821 816.23869964 654 810 C653.35675781 809.79036621 652.71351563 809.58073242 652.05078125 809.36474609 C635.30170106 803.84825138 619.24401187 795.37245632 605 785 C604.01 784.28199219 603.02 783.56398438 602 782.82421875 C589.57798674 773.65030845 578.15269305 763.65359463 567 753 C566.48373047 752.51241211 565.96746094 752.02482422 565.43554688 751.52246094 C550.94387591 737.80120855 537.75492162 720.44257508 528 703 C528 702.34 528 701.68 528 701 C527.01 700.67 526.02 700.34 525 700 C525 699.34 525 698.68 525 698 C524.23846312 696.41982952 523.42072065 694.86660143 522.578125 693.328125 C522.05307373 692.36455078 521.52802246 691.40097656 520.98706055 690.40820312 C520.41383057 689.36599609 519.84060059 688.32378906 519.25 687.25 C518.66452393 686.17685547 518.07904785 685.10371094 517.47583008 683.99804688 C515.10315717 679.65149642 512.72017992 675.31064717 510.33544922 670.97070312 C504.42692711 660.2173744 498.61342977 649.45532289 493.20654297 638.44091797 C491.74611422 635.48637192 490.26608091 632.54198236 488.78515625 629.59765625 C480.62358209 613.36336741 472.52857826 597.09416328 464.96484375 580.5703125 C459.92475202 569.59368524 454.20865458 559.05197959 448.36181641 548.48583984 C447.2100664 546.38345216 446.08365866 544.27264228 444.98046875 542.14453125 C433.26331157 519.55262689 419.53242713 498.14524525 404 478 C403.54560547 477.40880371 403.09121094 476.81760742 402.62304688 476.20849609 C401.17051082 474.32244743 399.71155222 472.44156831 398.25 470.5625 C397.80205078 469.98290527 397.35410156 469.40331055 396.89257812 468.80615234 C394.76099048 466.08624017 392.64457641 463.6499765 390.171875 461.21484375 C388 459 388 459 388 457 C387.34 457 386.68 457 386 457 C383.77322004 454.83871357 381.60452385 452.63054134 379.45703125 450.390625 C347.82848551 419.94902248 292.74637908 422.60772627 252.45629883 423.24194336 C249.35511059 423.29058689 246.25396249 423.33216311 243.15258789 423.36694336 C219.12802287 423.61858021 219.12802287 423.61858021 195.2071228 425.72006226 C192.81421678 426.02356359 190.41916774 426.30149402 188.02270508 426.57543945 C184.01321532 427.03527274 180.00617955 427.51220094 176 428 C187.92474993 458.2728845 187.92474993 458.2728845 200.00146484 488.48535156 C200.70099589 490.22155285 201.39979725 491.9580483 202.09790039 493.69482422 C202.7425952 495.29866921 203.38870218 496.90194803 204.03686523 498.50439453 C206.01716724 503.4335956 207.90538246 508.39407288 209.76171875 513.37109375 C213.31300189 522.88693168 216.99321015 532.35142523 220.6875 541.8125 C221.0356073 542.70508514 221.3837146 543.59767029 221.74237061 544.51730347 C226.51432959 556.74727267 231.34710836 568.94755166 236.3737793 581.07543945 C238.85160792 587.0751114 241.18763753 593.11743539 243.44996643 599.20089722 C247.37840154 609.73798662 251.48875427 620.20598539 255.5625 630.6875 C256.82333925 633.93384046 258.08391658 637.18028245 259.34432983 640.42678833 C260.15217046 642.50736376 260.9602914 644.58783039 261.76870728 646.66818237 C263.78658198 651.86305009 265.79141399 657.06237844 267.77734375 662.26953125 C269.26201076 666.14168602 270.81103097 669.97777304 272.41796875 673.80078125 C275.22044564 680.46851798 277.8377246 687.2046728 280.44677734 693.94961548 C281.65001796 697.0599806 282.85679377 700.16897067 284.06332397 703.27806091 C284.70542967 704.93275415 285.34737483 706.58750968 285.98916626 708.24232483 C289.46944414 717.21491792 292.96315334 726.18226099 296.46078491 735.14810181 C297.47224119 737.7413304 298.48284244 740.33489107 299.4934082 742.9284668 C302.81811407 751.45481249 306.17552474 759.96651525 309.58398438 768.4597168 C312.40624775 775.51586184 315.17048033 782.59497251 317.93457031 789.67407227 C319.93632301 794.79130126 321.93712687 799.90401135 324.078125 804.96484375 C324.36751953 805.65513672 324.65691406 806.34542969 324.95507812 807.05664062 C325.6836312 808.78046523 326.42702229 810.49799917 327.171875 812.21484375 C328.09543383 815.32096376 327.73434384 816.90438328 327 820 C317.141009 820.26357596 307.28195221 820.52452961 297.42280769 820.78230286 C292.8428729 820.90212687 288.26296378 821.02279252 283.68310547 821.14550781 C279.24811917 821.26430823 274.81307584 821.38073318 270.37798691 821.49563599 C268.70144375 821.53946502 267.02492126 821.5840937 265.348423 821.62960815 C260.68020231 821.7560517 256.01233615 821.85960277 251.3431778 821.94415283 C248.87093368 822.00307616 246.40197018 822.10215072 243.93109131 822.20263672 C242.29116233 822.24924719 240.65120902 822.29501121 239.01123047 822.33984375 C238.25036699 822.38009171 237.48950352 822.42033966 236.70558357 822.46180725 C234.56881714 822.50366211 234.56881714 822.50366211 231 822 C229.08914185 819.68945312 229.08914185 819.68945312 228 817 C227.525625 815.88753906 227.05125 814.77507813 226.5625 813.62890625 C226.03617932 812.27555876 225.51578056 810.91989947 225 809.5625 C224.56421631 808.43110596 224.56421631 808.43110596 224.11962891 807.27685547 C222.12415006 802.05720487 220.19198531 796.81473268 218.2734375 791.56640625 C218.03514221 790.91472977 217.79684692 790.26305328 217.55133057 789.59162903 C216.360958 786.33324266 215.17502329 783.07333525 213.99609375 779.81079102 C211.54792315 773.07255626 208.96421067 766.42941903 206.16992188 759.82763672 C204.3192299 755.35461617 202.68922787 750.80823569 201.0625 746.25 C200.36905695 744.32661827 199.67504262 742.40344241 198.98046875 740.48046875 C198.64450684 739.54895996 198.30854492 738.61745117 197.96240234 737.65771484 C196.62035844 733.95160375 195.25646257 730.25408523 193.875 726.5625 C193.63749023 725.92779785 193.39998047 725.2930957 193.15527344 724.63916016 C191.44537346 720.10476739 189.63836667 715.61370656 187.8125 711.125 C185.8467493 706.2917781 184.18418919 701.4630283 182.76953125 696.44140625 C181.5536484 692.58390991 179.911176 688.91831521 178.3203125 685.203125 C176.93213375 681.83535407 175.70395444 678.43770639 174.5 675 C172.97884968 670.66401077 171.37108975 666.4113949 169.5625 662.1875 C167.57458411 657.51404556 165.8424862 652.79769349 164.1875 648 C161.95911315 641.54236024 159.51372766 635.2015928 156.9375 628.875 C154.03659781 621.74658022 151.42324822 614.59995917 149.10546875 607.26171875 C147.91457296 603.74794495 146.47699964 600.40270803 145 597 C144.02544101 594.48372065 143.06505686 591.96644711 142.125 589.4375 C141.86380371 588.73915039 141.60260742 588.04080078 141.33349609 587.32128906 C139.71618741 582.98024749 138.15655282 578.62216937 136.625 574.25 C134.28066674 567.62405488 131.65844687 561.1252889 129.01879883 554.61230469 C126.52642423 548.42166265 124.25427186 542.17955614 122.07836914 535.87182617 C120.68196103 531.85041872 119.17603614 527.91607175 117.5 524 C115.510399 519.34914925 113.78088098 514.65143393 112.125 509.875 C110.05569475 503.9082916 107.87436562 498.0020362 105.5625 492.125 C102.80559736 485.11435113 100.15390149 478.0716066 97.56811523 470.99609375 C96.15455232 467.12933587 94.72872276 463.26872232 93.26171875 459.421875 C92.98593994 458.69693848 92.71016113 457.97200195 92.42602539 457.22509766 C91.90891826 455.86936602 91.38878883 454.5147815 90.86499023 453.16162109 C89.58067263 449.7877711 88.66032451 446.54311267 88 443 C41.70805887 452.91807458 -1.98173291 468.51950558 -43.66796875 491.2109375 C-46.70628402 492.84229552 -49.77192054 494.37174906 -52.875 495.875 C-65.1199509 501.94796756 -76.77229035 509.22578323 -88 517 C-88.72026367 517.49483887 -89.44052734 517.98967773 -90.18261719 518.49951172 C-104.78865877 528.54450374 -118.99786952 539.03815971 -132.76953125 550.203125 C-134.25275532 551.39801655 -135.75029665 552.57535702 -137.26171875 553.734375 C-170.2684469 579.26685231 -194.77731092 611.90999391 -208.11914062 651.43310547 C-209.49297823 655.4365779 -210.93687917 659.41443145 -212.37207031 663.39624023 C-218.54208911 680.52729984 -224.45873769 697.74304242 -230.31463623 714.98358154 C-230.97302126 716.92062547 -231.63299742 718.85711962 -232.29345703 720.79345703 C-233.43023284 724.13133162 -234.56037359 727.47135662 -235.6875 730.8125 C-236.01443848 731.77188477 -236.34137695 732.73126953 -236.67822266 733.71972656 C-238.15770313 738.13639907 -239.42413581 742.35469557 -240 747 C-240.66 747 -241.32 747 -242 747 C-242.10648865 747.60875977 -242.21297729 748.21751953 -242.32269287 748.84472656 C-243.47396613 755.03870439 -245.13859494 760.82704598 -247.265625 766.75 C-247.58150574 767.64759033 -247.89738647 768.54518066 -248.22283936 769.4699707 C-249.22556984 772.31559558 -250.23735046 775.15789169 -251.25 778 C-252.24291096 780.80394171 -253.23386028 783.60856629 -254.22375488 786.41357422 C-254.87410771 788.2556056 -255.52603253 790.09708276 -256.17956543 791.93798828 C-257.74338499 796.35846948 -259.27068073 800.78559151 -260.71679688 805.24609375 C-260.98466003 806.07020752 -261.25252319 806.89432129 -261.52850342 807.7434082 C-262.02511612 809.28267485 -262.51520542 810.82406824 -262.99737549 812.36791992 C-265.2318632 819.30010694 -265.2318632 819.30010694 -268 822 C-270.90728089 822.83457285 -273.86181459 822.64895219 -276.875 822.625 C-278.07962891 822.67333984 -278.07962891 822.67333984 -279.30859375 822.72265625 C-282.52320349 822.72795215 -284.99121619 822.71764339 -287.66479492 820.81567383 C-291.61757541 816.46853078 -291.66258888 812.86389709 -291.43359375 807.3125 C-290.54759919 800.54382081 -288.8076881 793.71153215 -285 788 C-284.47580734 786.63665572 -283.99736156 785.25523141 -283.5546875 783.86328125 C-283.2978418 783.06615723 -283.04099609 782.2690332 -282.77636719 781.44775391 C-282.52016602 780.63999512 -282.26396484 779.83223633 -282 779 C-281.52475894 777.534727 -281.04822914 776.06987126 -280.5703125 774.60546875 C-280.33497803 773.88407715 -280.09964355 773.16268555 -279.85717773 772.41943359 C-277.5878207 765.50164031 -275.13368967 758.78504761 -272.234375 752.1015625 C-269.75579497 745.87373798 -267.91441667 739.41940567 -266 733 C-265.34 733 -264.68 733 -264 733 C-263.83757812 731.23849609 -263.83757812 731.23849609 -263.671875 729.44140625 C-263.14897881 725.28109057 -261.91071332 721.80251065 -260.25 717.9375 C-258.05502173 712.70444362 -256.06903941 707.45903974 -254.3125 702.0625 C-252.34931482 696.04829779 -250.24508657 690.14642815 -247.91796875 684.265625 C-245.41378245 677.8739876 -243.12985329 671.46196421 -241 664.9375 C-239.35685807 659.91337763 -237.65829047 654.98311101 -235.5625 650.125 C-230.78141321 639.04087275 -227.12251324 627.46644775 -223.375 616 C-221.93662799 611.63803145 -220.37989586 607.4050123 -218.5625 603.1875 C-215.48708492 596.02770085 -213.13257833 588.64214253 -210.72949219 581.23681641 C-209.50582592 577.48473129 -208.25247349 573.74254942 -207 570 C-206.34 570 -205.68 570 -205 570 C-204.814375 568.741875 -204.62875 567.48375 -204.4375 566.1875 C-202.8696157 558.34807851 -199.80239815 550.99392543 -196.96435547 543.54638672 C-195.40097036 539.41825845 -193.89143042 535.27055001 -192.375 531.125 C-190.40992188 525.76831442 -188.39973217 520.43563353 -186.3125 515.125 C-184.70769446 510.99835718 -183.319579 506.87021761 -182.0625 502.625 C-180.64453043 497.86222319 -178.96018806 493.27626997 -177.0625 488.6875 C-174.9027312 483.46410932 -173.06339233 478.22568915 -171.4375 472.8125 C-169.71845563 467.10008829 -167.67997974 461.64667191 -165.3125 456.171875 C-162.87911294 450.29118961 -160.86187977 444.25705178 -158.77929688 438.24511719 C-157.46945789 434.47153345 -156.1408164 430.70461033 -154.8125 426.9375 C-154.57474854 426.25985596 -154.33699707 425.58221191 -154.09204102 424.8840332 C-152.93943549 421.6093748 -151.76079781 418.34816671 -150.53125 415.1015625 C-149.13715508 411.40691856 -147.8387746 407.68371039 -146.55297852 403.95019531 C-144.20936528 397.14611425 -141.81299956 390.40079811 -139.0625 383.75 C-135.98625234 376.23575239 -133.49170587 368.55944062 -130.96777344 360.8449707 C-129.08473362 355.13040523 -127.11099702 349.49816132 -124.8125 343.9375 C-121.51451924 335.95244333 -118.84551521 327.81902245 -116.234375 319.5859375 C-114.73406719 314.92800511 -112.97071263 310.40575213 -111.125 305.875 C-108.49911332 299.42852975 -106.24131263 292.91401394 -104.0859375 286.296875 C-103.05275441 283.16016087 -101.92861912 280.08282487 -100.73828125 277.00390625 C-99.79432685 274.44174431 -98.96629659 271.84762892 -98.125 269.25 C-96.80547981 265.24662553 -95.35496529 261.37070632 -93.6875 257.5 C-91.07719179 251.37735047 -88.90163888 245.13692664 -86.73168945 238.84887695 C-84.6870488 232.93262277 -82.56119635 227.05281738 -80.375 221.1875 C-77.81281099 214.30152833 -75.4087892 207.38271322 -73.140625 200.39453125 C-71.85165431 196.55851915 -70.44286779 192.78018511 -69 189 C-65.52970892 179.89048592 -62.18736812 170.77278981 -59.17578125 161.5 C-57.87517501 157.62842794 -56.45497708 153.81552218 -55 150 C-51.67642009 141.22090796 -48.41873048 132.42801052 -45.32104492 123.56640625 C-43.442361 118.20811527 -41.48213238 112.88327473 -39.5 107.5625 C-36.87750437 100.5188149 -34.46173875 93.42686715 -32.13110352 86.28198242 C-30.41961325 81.09705564 -28.40777284 76.11166792 -26.234375 71.1015625 C-23.75579497 64.87373798 -21.91441667 58.41940567 -20 52 C-19.34 52 -18.68 52 -18 52 C-17.89300781 50.83082031 -17.78601563 49.66164063 -17.67578125 48.45703125 C-17.1430738 44.21496336 -15.86202083 40.63428202 -14.1875 36.6875 C-13.64070493 35.37160093 -13.09513844 34.05519069 -12.55078125 32.73828125 C-12.28475098 32.10100098 -12.0187207 31.4637207 -11.74462891 30.80712891 C-8.66800061 23.3405051 -6.24818809 15.7039704 -4.02734375 7.9453125 C-3.0001613 5.00046243 -1.69776234 2.60676257 0 0 Z M-29 152 C-34.15879344 165.7131014 -39.20653027 179.44543874 -43.9375 193.3125 C-47.59414398 204.02877938 -51.4087653 214.67410329 -55.33425903 225.29376221 C-58.26729074 233.23070875 -61.13336996 241.18249181 -63.875 249.1875 C-67.23955018 259.00535321 -70.85911856 268.71985965 -74.5 278.4375 C-79.33816706 291.35081641 -83.93328434 304.30549677 -88.13134766 317.4440918 C-89.07996882 320.23529893 -90.11363705 322.99036612 -91.15524292 325.7480011 C-92.72730115 329.93887856 -94.24243845 334.15054351 -95.765625 338.359375 C-96.12211121 339.34383606 -96.47859741 340.32829712 -96.84588623 341.34259033 C-97.59916801 343.42345268 -98.35219462 345.50440741 -99.10498047 347.58544922 C-100.23165215 350.69929107 -101.35992612 353.81254911 -102.48828125 356.92578125 C-105.89870498 366.34590435 -109.28609554 375.77216048 -112.578125 385.234375 C-116.40439096 396.22855089 -120.42390372 407.14969022 -124.44775391 418.07275391 C-128.21509668 428.3061703 -131.91507463 438.55755076 -135.49815369 448.85702515 C-138.09682885 456.3139083 -140.8158089 463.72144172 -143.5625 471.125 C-146.89250755 480.1295802 -150.11174798 489.15412076 -153.07666016 498.28613281 C-154.68841825 503.20252403 -156.59529747 507.91988698 -158.640625 512.66796875 C-160.46009393 517.12775896 -162.08316984 521.64653548 -163.6875 526.1875 C-163.98519287 527.01942871 -164.28288574 527.85135742 -164.58959961 528.70849609 C-166.47015302 534.08898319 -167.86047928 539.41466444 -169 545 C-164.78378537 542.35260942 -161.49338113 539.58779683 -158 536 C-157.01 535.34 -156.02 534.68 -155 534 C-155 533.34 -155 532.68 -155 532 C-153.35 531.34 -151.7 530.68 -150 530 C-150 529.34 -150 528.68 -150 528 C-149.401875 527.896875 -148.80375 527.79375 -148.1875 527.6875 C-145.69130983 526.90298309 -144.74268135 525.90110692 -143 524 C-142.34 523.67 -141.68 523.34 -141 523 C-141 522.34 -141 521.68 -141 521 C-140.443125 520.731875 -139.88625 520.46375 -139.3125 520.1875 C-136.78774666 518.89100504 -134.36285516 517.57523677 -132 516 C-132 515.34 -132 514.68 -132 514 C-130.68 513.67 -129.36 513.34 -128 513 C-128 512.34 -128 511.68 -128 511 C-126.02 510.34 -124.04 509.68 -122 509 C-122 508.34 -122 507.68 -122 507 C-120.93652344 506.63068359 -120.93652344 506.63068359 -119.8515625 506.25390625 C-116.64128385 504.84226317 -114.16598332 503.05572563 -111.375 500.9375 C-106.31646932 497.10548977 -106.31646932 497.10548977 -103 496 C-102.67 495.34 -102.34 494.68 -102 494 C-100.36381326 493.029975 -98.68989153 492.12311063 -97 491.25 C-92.62245398 488.92056035 -88.51823498 486.41630059 -84.42578125 483.625 C-79.38835077 480.25048941 -74.19614477 477.12243356 -69 474 C-67.91847656 473.34902344 -66.83695312 472.69804688 -65.72265625 472.02734375 C-57.48662788 467.1933621 -49.01111139 463.05515964 -40.3515625 459.03515625 C-37.06933829 457.5113163 -33.83664548 455.91859106 -30.625 454.25 C-24.9369556 451.36633986 -18.96491427 449.2340779 -13 447 C-11.31004319 446.33958597 -9.6223282 445.6733904 -7.9375 445 C-6.73287109 444.51853516 -6.73287109 444.51853516 -5.50390625 444.02734375 C-3.75383174 443.30929446 -2.01216273 442.57056716 -0.27734375 441.81640625 C7.97912588 438.24934467 16.39318208 435.56675407 25 433 C25 432.34 25 431.68 25 431 C25.61488281 430.95101563 26.22976563 430.90203125 26.86328125 430.8515625 C27.67152344 430.77679687 28.47976563 430.70203125 29.3125 430.625 C30.11300781 430.55539062 30.91351563 430.48578125 31.73828125 430.4140625 C34.27224441 430.10435574 34.27224441 430.10435574 37 428 C41.44595217 426.26344199 46.07325547 424.967385 50.64453125 423.6015625 C51.51360107 423.34157471 52.3826709 423.08158691 53.27807617 422.8137207 C54.17631104 422.54519287 55.0745459 422.27666504 56 422 C57.78391228 421.46503751 59.56776669 420.92988198 61.3515625 420.39453125 C64.02734375 419.59179688 66.703125 418.7890625 69.37890625 417.98632812 C70.23613281 417.72916016 71.09335937 417.47199219 71.9765625 417.20703125 C73.31770833 416.8046875 74.65885417 416.40234375 76 416 C74.1036707 410.15787649 72.06195301 404.40252063 69.8125 398.6875 C69.51424316 397.92477783 69.21598633 397.16205566 68.90869141 396.3762207 C66.25673677 389.61188425 63.55155802 382.8689345 60.84765625 376.12524414 C57.23153517 367.09818407 53.70930656 358.05580267 50.5 348.875 C48.67625746 343.71152894 46.57977695 338.79452601 44.25 333.84375 C42.32018248 329.45341514 40.82059241 324.92182803 39.24609375 320.39453125 C38.14735147 317.40140573 36.92922843 314.56505283 35.5625 311.6875 C33.05616197 306.36054957 31.14911307 300.89536678 29.23291016 295.33764648 C27.41703774 290.09937355 25.39509428 284.98948567 23.21484375 279.890625 C21.90907986 276.78366269 20.69804241 273.64999313 19.5 270.5 C17.12603689 264.27756253 14.57994547 258.13924702 12 252 C7.94214791 242.31430816 4.03795917 232.5940173 0.390625 222.74609375 C-1.23119577 218.37720015 -2.90396155 214.02960258 -4.5859375 209.68359375 C-5.70703321 206.7631704 -6.81445476 203.83868146 -7.9140625 200.91015625 C-11.05696308 192.55929633 -14.18834025 184.26710876 -17.98828125 176.1875 C-19.52771909 172.85898575 -20.77504693 169.45425156 -22 166 C-22.42667969 164.81019531 -22.85335937 163.62039063 -23.29296875 162.39453125 C-24.5339989 158.93158651 -25.76830343 155.46627652 -27 152 C-27.66 152 -28.32 152 -29 152 Z " fill="#333333" transform="translate(327,273)"/>
<path d="M0 0 C0.66 0 1.32 0 2 0 C2 0.99 2 1.98 2 3 C1.34 3 0.68 3 0 3 C0 2.01 0 1.02 0 0 Z " fill="#FFFFFF" transform="translate(918,532)"/>
<path d="M0 0 C2 1 2 1 2 1 Z " fill="#FFFFFF" transform="translate(905,1038)"/>
<path d="M0 0 C2 1 2 1 2 1 Z " fill="#FFFFFF" transform="translate(846,796)"/>
<path d="" fill="#FFFFFF" transform="translate(0,0)"/>
<path d="" fill="#FFFFFF" transform="translate(0,0)"/>
<path d="" fill="#FFFFFF" transform="translate(0,0)"/>
<path d="" fill="#FFFFFF" transform="translate(0,0)"/>
</svg>
