<?xml version="1.0" encoding="UTF-8" standalone="no"?>
<!DOCTYPE svg PUBLIC "-//W3C//DTD SVG 1.1//EN" "http://www.w3.org/Graphics/SVG/1.1/DTD/svg11.dtd">
<svg width="100%" height="100%" viewBox="0 0 500 500" version="1.1" xmlns="http://www.w3.org/2000/svg" xmlns:xlink="http://www.w3.org/1999/xlink" xml:space="preserve" xmlns:serif="http://www.serif.com/" style="fill-rule:evenodd;clip-rule:evenodd;stroke-linejoin:round;stroke-miterlimit:2;">
    <g transform="matrix(0.890295,0,0,0.981281,27.4263,5.88121)">
        <path d="M29.538,347.872L29.538,172.65L134.69,172.65L134.69,149.679L365.31,149.679L365.31,172.65L470.462,172.65L470.462,347.872L29.538,347.872ZM134.69,226.003C134.69,226.003 128.738,188.536 90.201,188.536C51.664,188.536 45.711,226.003 45.711,226.003L45.711,326.596L134.69,326.596L134.69,226.003ZM365.31,226.003L365.31,326.596L454.289,326.596L454.289,226.003C454.289,226.003 448.336,188.536 409.799,188.536C371.262,188.536 365.31,226.003 365.31,226.003ZM334.223,326.596L334.223,226.003C334.223,226.003 321.732,164.252 248.954,164.252C176.175,164.252 163.684,226.003 163.684,226.003L163.684,326.596L334.223,326.596Z" style="fill:rgb(162,191,172);"/>
    </g>
</svg>
