<?xml version="1.0" encoding="UTF-8"?>
<!DOCTYPE svg PUBLIC "-//W3C//DTD SVG 1.1//EN" "http://www.w3.org/Graphics/SVG/1.1/DTD/svg11.dtd">
<svg xmlns="http://www.w3.org/2000/svg" version="1.1" width="500px" height="500px" style="shape-rendering:geometricPrecision; text-rendering:geometricPrecision; image-rendering:optimizeQuality; fill-rule:evenodd; clip-rule:evenodd" xmlns:xlink="http://www.w3.org/1999/xlink">
<g><path style="opacity:1" fill="#d5b99b" d="M 146.5,151.5 C 215.167,151.5 283.833,151.5 352.5,151.5C 352.5,159.167 352.5,166.833 352.5,174.5C 383.833,174.5 415.167,174.5 446.5,174.5C 446.5,232.167 446.5,289.833 446.5,347.5C 315.167,347.5 183.833,347.5 52.5,347.5C 52.5,289.833 52.5,232.167 52.5,174.5C 83.8333,174.5 115.167,174.5 146.5,174.5C 146.5,166.833 146.5,159.167 146.5,151.5 Z M 235.5,167.5 C 279.495,163.395 308.662,182.061 323,223.5C 323.5,257.498 323.667,291.498 323.5,325.5C 273.5,325.5 223.5,325.5 173.5,325.5C 173.333,291.832 173.5,258.165 174,224.5C 182.894,192.766 203.394,173.766 235.5,167.5 Z M 104.5,190.5 C 125.321,191.143 138.821,201.477 145,221.5C 146.473,256.118 146.973,290.785 146.5,325.5C 120.5,325.5 94.5,325.5 68.5,325.5C 68.3333,291.498 68.5,257.498 69,223.5C 73.7404,204.584 85.5737,193.584 104.5,190.5 Z M 388.5,190.5 C 410.722,190.884 424.555,201.884 430,223.5C 430.5,257.498 430.667,291.498 430.5,325.5C 404.5,325.5 378.5,325.5 352.5,325.5C 352.027,290.785 352.527,256.118 354,221.5C 359.485,204.168 370.985,193.834 388.5,190.5 Z"/></g>
</svg>
